{"asset":{"version":"2.0","generator":"Blockbench 4.9.3 glTF exporter"},"scenes":[{"nodes":[20],"name":"blockbench_export"}],"scene":0,"nodes":[{"rotation":[-1,0,0,6.123233995736766e-17],"name":"pyramid","mesh":0},{"name":"cube","mesh":1},{"name":"Grade","mesh":2},{"name":"Janela_1","mesh":3},{"name":"Grade.002","mesh":4},{"name":"Janela_2","mesh":5},{"name":"Base","mesh":6},{"name":"Janela_3","mesh":7},{"name":"Texto","mesh":8},{"name":"Grade.001","mesh":9},{"name":"Texto.001","mesh":10},{"name":"Base.001","mesh":11},{"name":"Janela_3.001","mesh":12},{"name":"Janela_2.001","mesh":13},{"name":"Janela_1.001","mesh":14},{"name":"Grade.003","mesh":15},{"name":"Grade.004","mesh":16},{"name":"Tampa","mesh":17},{"name":"Tampa 2","mesh":18},{"name":"Blender","children":[2,3,4,5,6,7,8,9,10,11,12,13,14,15,16,17,18]},{"children":[0,1,19]}],"bufferViews":[{"buffer":0,"byteOffset":0,"byteLength":192,"target":34962,"byteStride":12},{"buffer":0,"byteOffset":192,"byteLength":192,"target":34962,"byteStride":12},{"buffer":0,"byteOffset":384,"byteLength":128,"target":34962,"byteStride":8},{"buffer":0,"byteOffset":512,"byteLength":36,"target":34963},{"buffer":0,"byteOffset":548,"byteLength":288,"target":34962,"byteStride":12},{"buffer":0,"byteOffset":836,"byteLength":288,"target":34962,"byteStride":12},{"buffer":0,"byteOffset":1124,"byteLength":192,"target":34962,"byteStride":8},{"buffer":0,"byteOffset":1316,"byteLength":72,"target":34963},{"buffer":0,"byteOffset":1388,"byteLength":4800,"target":34962,"byteStride":12},{"buffer":0,"byteOffset":6188,"byteLength":4800,"target":34962,"byteStride":12},{"buffer":0,"byteOffset":10988,"byteLength":3200,"target":34962,"byteStride":8},{"buffer":0,"byteOffset":14188,"byteLength":1200,"target":34963},{"buffer":0,"byteOffset":15388,"byteLength":480,"target":34962,"byteStride":12},{"buffer":0,"byteOffset":15868,"byteLength":480,"target":34962,"byteStride":12},{"buffer":0,"byteOffset":16348,"byteLength":320,"target":34962,"byteStride":8},{"buffer":0,"byteOffset":16668,"byteLength":120,"target":34963},{"buffer":0,"byteOffset":16788,"byteLength":4800,"target":34962,"byteStride":12},{"buffer":0,"byteOffset":21588,"byteLength":4800,"target":34962,"byteStride":12},{"buffer":0,"byteOffset":26388,"byteLength":3200,"target":34962,"byteStride":8},{"buffer":0,"byteOffset":29588,"byteLength":1200,"target":34963},{"buffer":0,"byteOffset":30788,"byteLength":288,"target":34962,"byteStride":12},{"buffer":0,"byteOffset":31076,"byteLength":288,"target":34962,"byteStride":12},{"buffer":0,"byteOffset":31364,"byteLength":192,"target":34962,"byteStride":8},{"buffer":0,"byteOffset":31556,"byteLength":72,"target":34963},{"buffer":0,"byteOffset":31628,"byteLength":1584,"target":34962,"byteStride":12},{"buffer":0,"byteOffset":33212,"byteLength":1584,"target":34962,"byteStride":12},{"buffer":0,"byteOffset":34796,"byteLength":1056,"target":34962,"byteStride":8},{"buffer":0,"byteOffset":35852,"byteLength":396,"target":34963},{"buffer":0,"byteOffset":36248,"byteLength":288,"target":34962,"byteStride":12},{"buffer":0,"byteOffset":36536,"byteLength":288,"target":34962,"byteStride":12},{"buffer":0,"byteOffset":36824,"byteLength":192,"target":34962,"byteStride":8},{"buffer":0,"byteOffset":37016,"byteLength":72,"target":34963},{"buffer":0,"byteOffset":37088,"byteLength":6156,"target":34962,"byteStride":12},{"buffer":0,"byteOffset":43244,"byteLength":6156,"target":34962,"byteStride":12},{"buffer":0,"byteOffset":49400,"byteLength":4104,"target":34962,"byteStride":8},{"buffer":0,"byteOffset":53504,"byteLength":1028,"target":34963},{"buffer":0,"byteOffset":54532,"byteLength":4800,"target":34962,"byteStride":12},{"buffer":0,"byteOffset":59332,"byteLength":4800,"target":34962,"byteStride":12},{"buffer":0,"byteOffset":64132,"byteLength":3200,"target":34962,"byteStride":8},{"buffer":0,"byteOffset":67332,"byteLength":1200,"target":34963},{"buffer":0,"byteOffset":68532,"byteLength":6156,"target":34962,"byteStride":12},{"buffer":0,"byteOffset":74688,"byteLength":6156,"target":34962,"byteStride":12},{"buffer":0,"byteOffset":80844,"byteLength":4104,"target":34962,"byteStride":8},{"buffer":0,"byteOffset":84948,"byteLength":1028,"target":34963},{"buffer":0,"byteOffset":85976,"byteLength":1584,"target":34962,"byteStride":12},{"buffer":0,"byteOffset":87560,"byteLength":1584,"target":34962,"byteStride":12},{"buffer":0,"byteOffset":89144,"byteLength":1056,"target":34962,"byteStride":8},{"buffer":0,"byteOffset":90200,"byteLength":396,"target":34963},{"buffer":0,"byteOffset":90596,"byteLength":288,"target":34962,"byteStride":12},{"buffer":0,"byteOffset":90884,"byteLength":288,"target":34962,"byteStride":12},{"buffer":0,"byteOffset":91172,"byteLength":192,"target":34962,"byteStride":8},{"buffer":0,"byteOffset":91364,"byteLength":72,"target":34963},{"buffer":0,"byteOffset":91436,"byteLength":288,"target":34962,"byteStride":12},{"buffer":0,"byteOffset":91724,"byteLength":288,"target":34962,"byteStride":12},{"buffer":0,"byteOffset":92012,"byteLength":192,"target":34962,"byteStride":8},{"buffer":0,"byteOffset":92204,"byteLength":72,"target":34963},{"buffer":0,"byteOffset":92276,"byteLength":480,"target":34962,"byteStride":12},{"buffer":0,"byteOffset":92756,"byteLength":480,"target":34962,"byteStride":12},{"buffer":0,"byteOffset":93236,"byteLength":320,"target":34962,"byteStride":8},{"buffer":0,"byteOffset":93556,"byteLength":120,"target":34963},{"buffer":0,"byteOffset":93676,"byteLength":4800,"target":34962,"byteStride":12},{"buffer":0,"byteOffset":98476,"byteLength":4800,"target":34962,"byteStride":12},{"buffer":0,"byteOffset":103276,"byteLength":3200,"target":34962,"byteStride":8},{"buffer":0,"byteOffset":106476,"byteLength":1200,"target":34963},{"buffer":0,"byteOffset":107676,"byteLength":4800,"target":34962,"byteStride":12},{"buffer":0,"byteOffset":112476,"byteLength":4800,"target":34962,"byteStride":12},{"buffer":0,"byteOffset":117276,"byteLength":3200,"target":34962,"byteStride":8},{"buffer":0,"byteOffset":120476,"byteLength":1200,"target":34963},{"buffer":0,"byteOffset":121676,"byteLength":1440,"target":34962,"byteStride":12},{"buffer":0,"byteOffset":123116,"byteLength":1440,"target":34962,"byteStride":12},{"buffer":0,"byteOffset":124556,"byteLength":960,"target":34962,"byteStride":8},{"buffer":0,"byteOffset":125516,"byteLength":288,"target":34963},{"buffer":0,"byteOffset":125804,"byteLength":1440,"target":34962,"byteStride":12},{"buffer":0,"byteOffset":127244,"byteLength":1440,"target":34962,"byteStride":12},{"buffer":0,"byteOffset":128684,"byteLength":960,"target":34962,"byteStride":8},{"buffer":0,"byteOffset":129644,"byteLength":288,"target":34963}],"buffers":[{"byteLength":129932,"uri":"data:application/octet-stream;base64,"}],"accessors":[{"bufferView":0,"componentType":5126,"count":16,"max":[18.875,22.1875,12.5],"min":[-6.125,9.6875,-12.5],"type":"VEC3"},{"bufferView":1,"componentType":5126,"count":16,"max":[0.7071067690849304,0.7071067690849304,0.7071067690849304],"min":[-0.7071067690849304,-1,-0.7071067690849304],"type":"VEC3"},{"bufferView":2,"componentType":5126,"count":16,"max":[2,2],"min":[0,0],"type":"VEC2"},{"bufferView":3,"componentType":5123,"count":18,"max":[15],"min":[0],"type":"SCALAR"},{"bufferView":4,"componentType":5126,"count":24,"max":[19,-9.625,12.5625],"min":[-6,-9.75,-12.4375],"type":"VEC3"},{"bufferView":5,"componentType":5126,"count":24,"max":[1,1,1],"min":[-1,-1,-1],"type":"VEC3"},{"bufferView":6,"componentType":5126,"count":24,"max":[1,1],"min":[0,0],"type":"VEC2"},{"bufferView":7,"componentType":5123,"count":36,"max":[23],"min":[0],"type":"SCALAR"},{"bufferView":8,"componentType":5126,"count":400,"max":[3.917447090148926,1.0068780183792114,0.993366003036499],"min":[3.8924219608306885,-1.0016000270843506,-1.0020049810409546],"type":"VEC3"},{"bufferView":9,"componentType":5126,"count":400,"max":[-0.8595622181892395,0.0006955990684218705,0.015476361848413944],"min":[-1,-0.5107966661453247,0],"type":"VEC3"},{"bufferView":10,"componentType":5126,"count":400,"max":[1,1],"min":[0,0],"type":"VEC2"},{"bufferView":11,"componentType":5123,"count":600,"max":[399],"min":[0],"type":"SCALAR"},{"bufferView":12,"componentType":5126,"count":40,"max":[3.907447099685669,1,1],"min":[1.9074469804763794,-1,-1],"type":"VEC3"},{"bufferView":13,"componentType":5126,"count":40,"max":[0.9999226331710815,0.9999567866325378,1],"min":[-1,-1,-0.9999862313270569],"type":"VEC3"},{"bufferView":14,"componentType":5126,"count":40,"max":[0.875,1],"min":[0.125,0],"type":"VEC2"},{"bufferView":15,"componentType":5123,"count":60,"max":[39],"min":[0],"type":"SCALAR"},{"bufferView":16,"componentType":5126,"count":400,"max":[0.1914689987897873,-3.505708932876587,-2.560370922088623],"min":[0.1889059990644455,-3.5090279579162598,-2.5640599727630615],"type":"VEC3"},{"bufferView":17,"componentType":5126,"count":400,"max":[-0.5846976041793823,-0.4315108060836792,-0.2433190643787384],"min":[-0.8081638813018799,-0.7298763394355774,-0.5749820470809937],"type":"VEC3"},{"bufferView":18,"componentType":5126,"count":400,"max":[1,1],"min":[0,0],"type":"VEC2"},{"bufferView":19,"componentType":5123,"count":600,"max":[399],"min":[0],"type":"SCALAR"},{"bufferView":20,"componentType":5126,"count":24,"max":[0.18329399824142456,-3.5131618976593018,-2.5663509368896484],"min":[-1.8167059421539307,-5.513162136077881,-4.566350936889648],"type":"VEC3"},{"bufferView":21,"componentType":5126,"count":24,"max":[1,1,1],"min":[-1,-1,-1],"type":"VEC3"},{"bufferView":22,"componentType":5126,"count":24,"max":[0.875,1],"min":[0.125,0],"type":"VEC2"},{"bufferView":23,"componentType":5123,"count":36,"max":[23],"min":[0],"type":"SCALAR"},{"bufferView":24,"componentType":5126,"count":132,"max":[5,8.611117362976074,5],"min":[-5,-10.000004768371582,-5],"type":"VEC3"},{"bufferView":25,"componentType":5126,"count":132,"max":[0.9879240393638611,0.120585136115551,0.9879240393638611],"min":[-0.9879240393638611,-1,-0.9879243969917297],"type":"VEC3"},{"bufferView":26,"componentType":5126,"count":132,"max":[0,0],"min":[0,0],"type":"VEC2"},{"bufferView":27,"componentType":5123,"count":198,"max":[131],"min":[0],"type":"SCALAR"},{"bufferView":28,"componentType":5126,"count":24,"max":[0.18329399824142456,5.383076190948486,3.387489080429077],"min":[-1.8167059421539307,3.3830759525299072,1.3874889612197876],"type":"VEC3"},{"bufferView":29,"componentType":5126,"count":24,"max":[1,1,1],"min":[-1,-1,-1],"type":"VEC3"},{"bufferView":30,"componentType":5126,"count":24,"max":[0.875,1],"min":[0.125,0],"type":"VEC2"},{"bufferView":31,"componentType":5123,"count":36,"max":[23],"min":[0],"type":"SCALAR"},{"bufferView":32,"componentType":5126,"count":513,"max":[2.3663229942321777,0.9329360127449036,-2.9692869186401367],"min":[-2.2706339359283447,-0.36035001277923584,-3.8045520782470703],"type":"VEC3"},{"bufferView":33,"componentType":5126,"count":513,"max":[0.6297748684883118,0.9646171927452087,0.9995060563087463],"min":[-0.6607157588005066,-0.9989715814590454,-0.9957074522972107],"type":"VEC3"},{"bufferView":34,"componentType":5126,"count":513,"max":[1,1],"min":[0,1],"type":"VEC2"},{"bufferView":35,"componentType":5123,"count":513,"max":[512],"min":[0],"type":"SCALAR"},{"bufferView":36,"componentType":5126,"count":400,"max":[0.18353399634361267,3.3762149810791016,1.3811609745025635],"min":[-1.6395989656448364,3.375335931777954,1.3802180290222168],"type":"VEC3"},{"bufferView":37,"componentType":5126,"count":400,"max":[0,0.7739573121070862,0.727393627166748],"min":[-0.015301555395126343,0.6862204074859619,0.6332377791404724],"type":"VEC3"},{"bufferView":38,"componentType":5126,"count":400,"max":[1,1],"min":[0,0],"type":"VEC2"},{"bufferView":39,"componentType":5123,"count":600,"max":[399],"min":[0],"type":"SCALAR"},{"bufferView":40,"componentType":5126,"count":513,"max":[14.815156936645508,-2.0030291080474854,4.297889232635498],"min":[10.124053955078125,-2.8876900672912598,3.5528531074523926],"type":"VEC3"},{"bufferView":41,"componentType":5126,"count":513,"max":[0.4741983413696289,0.9990867376327515,0.9865834712982178],"min":[-0.467533677816391,-0.4087761640548706,-0.9933159947395325],"type":"VEC3"},{"bufferView":42,"componentType":5126,"count":513,"max":[1,1],"min":[0,1],"type":"VEC2"},{"bufferView":43,"componentType":5123,"count":513,"max":[512],"min":[0],"type":"SCALAR"},{"bufferView":44,"componentType":5126,"count":132,"max":[17.512012481689453,3.7331690788269043,5],"min":[7.512012004852295,-9.82240104675293,-5],"type":"VEC3"},{"bufferView":45,"componentType":5126,"count":132,"max":[0.9816281199455261,0.1645023226737976,0.9816283583641052],"min":[-0.9816281199455261,-1,-0.9816286563873291],"type":"VEC3"},{"bufferView":46,"componentType":5126,"count":132,"max":[0,0],"min":[0,0],"type":"VEC2"},{"bufferView":47,"componentType":5123,"count":198,"max":[131],"min":[0],"type":"SCALAR"},{"bufferView":48,"componentType":5126,"count":24,"max":[11.140949249267578,0.7195429801940918,2.725641965866089],"min":[9.140949249267578,-1.2804570198059082,0.7256420254707336],"type":"VEC3"},{"bufferView":49,"componentType":5126,"count":24,"max":[1,1,1],"min":[-1,-1,-1],"type":"VEC3"},{"bufferView":50,"componentType":5126,"count":24,"max":[0.875,1],"min":[0.125,0],"type":"VEC2"},{"bufferView":51,"componentType":5123,"count":36,"max":[23],"min":[0],"type":"SCALAR"},{"bufferView":52,"componentType":5126,"count":24,"max":[13.852784156799316,-7.4306321144104,-2.9663009643554688],"min":[11.852784156799316,-9.430631637573242,-4.966300964355469],"type":"VEC3"},{"bufferView":53,"componentType":5126,"count":24,"max":[1,1,1],"min":[-1,-1,-1],"type":"VEC3"},{"bufferView":54,"componentType":5126,"count":24,"max":[0.875,1],"min":[0.125,0],"type":"VEC2"},{"bufferView":55,"componentType":5123,"count":36,"max":[23],"min":[0],"type":"SCALAR"},{"bufferView":56,"componentType":5126,"count":40,"max":[17.17487144470215,-3.6635329723358154,1],"min":[15.174871444702148,-5.6635332107543945,-1],"type":"VEC3"},{"bufferView":57,"componentType":5126,"count":40,"max":[0.9999226331710815,0.9999567866325378,1],"min":[-1,-1,-0.9999862313270569],"type":"VEC3"},{"bufferView":58,"componentType":5126,"count":40,"max":[0.875,1],"min":[0.125,0],"type":"VEC2"},{"bufferView":59,"componentType":5123,"count":60,"max":[39],"min":[0],"type":"SCALAR"},{"bufferView":60,"componentType":5126,"count":400,"max":[13.860276222229004,-7.422973155975342,-2.9586760997772217],"min":[13.857298851013184,-7.427332878112793,-2.9627740383148193],"type":"VEC3"},{"bufferView":61,"componentType":5126,"count":400,"max":[-0.4778922200202942,-0.34913143515586853,-0.3674865663051605],"min":[-0.7360539436340332,-0.7439436316490173,-0.7391061782836914],"type":"VEC3"},{"bufferView":62,"componentType":5126,"count":400,"max":[1,1],"min":[0,0],"type":"VEC2"},{"bufferView":63,"componentType":5123,"count":600,"max":[399],"min":[0],"type":"SCALAR"},{"bufferView":64,"componentType":5126,"count":400,"max":[11.142786979675293,-1.2875410318374634,0.7197589874267578],"min":[10.835267066955566,-1.2884860038757324,0.7187110185623169],"type":"VEC3"},{"bufferView":65,"componentType":5126,"count":400,"max":[0,0.8032373189926147,0.6932457089424133],"min":[-0.17570674419403076,0.7157624959945679,0.5875054597854614],"type":"VEC3"},{"bufferView":66,"componentType":5126,"count":400,"max":[1,1],"min":[0,0],"type":"VEC2"},{"bufferView":67,"componentType":5123,"count":600,"max":[399],"min":[0],"type":"SCALAR"},{"bufferView":68,"componentType":5126,"count":120,"max":[2.6875,8.0625,2.625],"min":[-2.6875,7.0625,-2.625],"type":"VEC3"},{"bufferView":69,"componentType":5126,"count":120,"max":[1,1,1],"min":[-1,-1,-1],"type":"VEC3"},{"bufferView":70,"componentType":5126,"count":120,"max":[1.0352764129638672,1.0352764129638672],"min":[0,0],"type":"VEC2"},{"bufferView":71,"componentType":5123,"count":144,"max":[119],"min":[0],"type":"SCALAR"},{"bufferView":72,"componentType":5126,"count":120,"max":[15.125,2.3125,2.625],"min":[9.75,1.3125,-2.625],"type":"VEC3"},{"bufferView":73,"componentType":5126,"count":120,"max":[1,1,1],"min":[-1,-1,-1],"type":"VEC3"},{"bufferView":74,"componentType":5126,"count":120,"max":[1.0352764129638672,1.0352764129638672],"min":[0,0],"type":"VEC2"},{"bufferView":75,"componentType":5123,"count":144,"max":[119],"min":[0],"type":"SCALAR"}],"materials":[{"pbrMetallicRoughness":{"metallicFactor":0,"roughnessFactor":1,"baseColorTexture":{"index":0}},"alphaMode":"MASK","alphaCutoff":0.05,"doubleSided":true},{"pbrMetallicRoughness":{"metallicFactor":0,"roughnessFactor":1,"baseColorTexture":{"index":1}},"alphaMode":"MASK","alphaCutoff":0.05,"doubleSided":true},{"pbrMetallicRoughness":{"metallicFactor":0,"roughnessFactor":1,"baseColorTexture":{"index":2}},"alphaMode":"MASK","alphaCutoff":0.05,"doubleSided":true},{"pbrMetallicRoughness":{"metallicFactor":0,"roughnessFactor":1,"baseColorTexture":{"index":3}},"alphaMode":"MASK","alphaCutoff":0.05,"doubleSided":true},{"pbrMetallicRoughness":{"metallicFactor":0,"roughnessFactor":1,"baseColorTexture":{"index":4}},"alphaMode":"MASK","alphaCutoff":0.05,"doubleSided":true},{"pbrMetallicRoughness":{"metallicFactor":0,"roughnessFactor":1,"baseColorTexture":{"index":5}},"alphaMode":"MASK","alphaCutoff":0.05,"doubleSided":true}],"textures":[{"sampler":0,"source":0},{"sampler":1,"source":1},{"sampler":2,"source":2},{"sampler":3,"source":3},{"sampler":4,"source":4},{"sampler":5,"source":5}],"samplers":[{"magFilter":9728,"minFilter":9728,"wrapS":33071,"wrapT":33071},{"magFilter":9728,"minFilter":9728,"wrapS":33071,"wrapT":33071},{"magFilter":9728,"minFilter":9728,"wrapS":33071,"wrapT":33071},{"magFilter":9728,"minFilter":9728,"wrapS":33071,"wrapT":33071},{"magFilter":9728,"minFilter":9728,"wrapS":33071,"wrapT":33071},{"magFilter":9728,"minFilter":9728,"wrapS":33071,"wrapT":33071}],"images":[{"mimeType":"image/png","uri":"data:image/png;base64,"},{"mimeType":"image/png","uri":"data:image/png;base64,"},{"mimeType":"image/png","uri":"data:image/png;base64,"},{"mimeType":"image/png","uri":"data:image/png;base64,"},{"mimeType":"image/png","uri":"data:image/png;base64,"},{"mimeType":"image/png","uri":"data:image/png;base64,"}],"meshes":[{"primitives":[{"mode":4,"attributes":{"POSITION":0,"NORMAL":1,"TEXCOORD_0":2},"indices":3,"material":0}]},{"primitives":[{"mode":4,"attributes":{"POSITION":4,"NORMAL":5,"TEXCOORD_0":6},"indices":7,"material":1}]},{"primitives":[{"mode":4,"attributes":{"POSITION":8,"NORMAL":9,"TEXCOORD_0":10},"indices":11,"material":2}]},{"primitives":[{"mode":4,"attributes":{"POSITION":12,"NORMAL":13,"TEXCOORD_0":14},"indices":15,"material":3}]},{"primitives":[{"mode":4,"attributes":{"POSITION":16,"NORMAL":17,"TEXCOORD_0":18},"indices":19,"material":2}]},{"primitives":[{"mode":4,"attributes":{"POSITION":20,"NORMAL":21,"TEXCOORD_0":22},"indices":23,"material":3}]},{"primitives":[{"mode":4,"attributes":{"POSITION":24,"NORMAL":25,"TEXCOORD_0":26},"indices":27,"material":4}]},{"primitives":[{"mode":4,"attributes":{"POSITION":28,"NORMAL":29,"TEXCOORD_0":30},"indices":31,"material":3}]},{"primitives":[{"mode":4,"attributes":{"POSITION":32,"NORMAL":33,"TEXCOORD_0":34},"indices":35,"material":5}]},{"primitives":[{"mode":4,"attributes":{"POSITION":36,"NORMAL":37,"TEXCOORD_0":38},"indices":39,"material":2}]},{"primitives":[{"mode":4,"attributes":{"POSITION":40,"NORMAL":41,"TEXCOORD_0":42},"indices":43,"material":5}]},{"primitives":[{"mode":4,"attributes":{"POSITION":44,"NORMAL":45,"TEXCOORD_0":46},"indices":47,"material":4}]},{"primitives":[{"mode":4,"attributes":{"POSITION":48,"NORMAL":49,"TEXCOORD_0":50},"indices":51,"material":3}]},{"primitives":[{"mode":4,"attributes":{"POSITION":52,"NORMAL":53,"TEXCOORD_0":54},"indices":55,"material":3}]},{"primitives":[{"mode":4,"attributes":{"POSITION":56,"NORMAL":57,"TEXCOORD_0":58},"indices":59,"material":3}]},{"primitives":[{"mode":4,"attributes":{"POSITION":60,"NORMAL":61,"TEXCOORD_0":62},"indices":63,"material":2}]},{"primitives":[{"mode":4,"attributes":{"POSITION":64,"NORMAL":65,"TEXCOORD_0":66},"indices":67,"material":2}]},{"primitives":[{"mode":4,"attributes":{"POSITION":68,"NORMAL":69,"TEXCOORD_0":70},"indices":71,"material":1}]},{"primitives":[{"mode":4,"attributes":{"POSITION":72,"NORMAL":73,"TEXCOORD_0":74},"indices":75,"material":1}]}]}